<svg width="32" height="32" viewBox="0 0 32 32" fill="none" xmlns="http://www.w3.org/2000/svg">
<path d="M29.3756 7.24732L29.7597 6.70983C29.8246 6.61946 29.8595 6.51113 29.8595 6.39993C29.8595 2.81117 23.7684 0 15.993 0C8.21751 0 2.12643 2.81117 2.12643 6.39993C2.12643 6.51113 2.16132 6.61946 2.22616 6.70983L2.61001 7.24732C-1.13109 12.9665 -0.825368 20.431 3.37068 25.8253C7.56674 31.2197 14.7263 33.3523 21.1903 31.1333C27.6543 28.9143 31.9946 22.8341 31.9928 15.9998C31.9975 12.8889 31.0873 9.84521 29.3756 7.24732ZM15.993 1.06666C22.8015 1.06666 28.5725 3.41819 28.7863 6.24004L26.3863 9.5999H24.1705L24.0312 9.49313C24.1653 9.35511 24.2884 9.20667 24.3994 9.04938C24.4408 9.06006 24.4832 9.06579 24.5262 9.06657H25.8371C26.0095 9.06657 26.1712 8.98324 26.2712 8.84314L28.0845 6.30488C28.1871 6.16139 28.2121 5.97676 28.1512 5.81114C27.3874 3.74085 22.6322 1.59998 15.993 1.59998C9.35344 1.59998 4.59828 3.74085 3.8363 5.81322C3.77537 5.97884 3.80037 6.16374 3.90297 6.30723L5.71623 8.84522C5.81623 8.98558 5.97795 9.06866 6.15034 9.06866H7.4597C7.50215 9.06866 7.54434 9.06345 7.58548 9.05381C7.69642 9.2111 7.8196 9.35954 7.95345 9.49756L7.81439 9.60407H5.60113L3.20115 6.24421C3.41339 3.41819 9.18443 1.06666 15.993 1.06666ZM15.993 25.5997C10.6935 25.5935 6.3993 21.2993 6.39305 15.9998C6.38966 14.0967 6.95893 12.2363 8.02715 10.6613C8.13027 10.6559 8.22949 10.6207 8.31308 10.5598L8.8261 10.1759C8.87948 10.2059 8.93287 10.235 8.98599 10.2624C5.95503 13.9548 6.3092 19.3659 9.79588 22.6321C13.2826 25.8979 18.7054 25.8979 22.1921 22.6321C25.6788 19.3659 26.033 13.9548 23.002 10.2624C23.0554 10.235 23.1085 10.2059 23.1619 10.1759L23.6749 10.5598C23.7585 10.6205 23.8577 10.6554 23.9608 10.6606C25.0283 12.2363 25.597 14.0967 25.5929 15.9998C25.5866 21.2993 21.2924 25.5935 15.993 25.5997ZM10.6597 10.6666C11.9485 10.6619 13.1443 9.99573 13.8271 8.90277C14.075 9.07438 14.3438 9.21345 14.6271 9.31605C14.476 9.56214 14.3951 9.84469 14.393 10.1332C14.393 11.0168 15.1094 11.7332 15.993 11.7332C16.8765 11.7332 17.5929 11.0168 17.5929 10.1332C17.5916 9.84469 17.5112 9.5624 17.3609 9.31605C17.6442 9.21345 17.913 9.07438 18.1609 8.90277C18.8432 9.99521 20.0382 10.6611 21.3262 10.6666C21.5156 10.665 21.7046 10.6488 21.8916 10.6181C24.8147 13.8087 24.671 18.7456 21.5666 21.7607C18.4625 24.7758 13.5234 24.7758 10.4191 21.7607C7.31492 18.7456 7.17091 13.8087 10.0943 10.6181C10.2813 10.6488 10.4704 10.665 10.6597 10.6666ZM15.993 9.5999C16.2875 9.5999 16.5263 9.8387 16.5263 10.1332C16.5263 10.4278 16.2875 10.6666 15.993 10.6666C15.6984 10.6666 15.4596 10.4278 15.4596 10.1332C15.4596 9.8387 15.6984 9.5999 15.993 9.5999ZM23.7348 8.07622C23.2746 9.0434 22.2806 9.64157 21.2109 9.59495C20.1408 9.54834 19.2023 8.86631 18.8281 7.86294C18.7635 7.68976 18.6138 7.56268 18.4325 7.52648C18.2515 7.49055 18.0645 7.5507 17.9385 7.68586C17.4362 8.22778 16.7307 8.53585 15.9919 8.53585C15.2529 8.53585 14.5474 8.22778 14.0453 7.68586C13.9193 7.5507 13.7323 7.49055 13.5511 7.52648C13.3698 7.56268 13.2203 7.68976 13.1557 7.86294C12.7813 8.86631 11.843 9.54834 10.773 9.59495C9.70291 9.64157 8.70891 9.0434 8.24902 8.07622C8.18079 7.93195 8.05137 7.8257 7.89642 7.7869C7.74147 7.74836 7.57715 7.78091 7.44903 7.87622L7.28419 7.99992H6.42456L4.95296 5.94291C5.83134 4.52625 9.98338 2.66664 15.993 2.66664C22.0025 2.66664 26.1543 4.52625 27.0329 5.94291L25.5613 7.99992H24.7017L24.5353 7.87622C24.4069 7.78091 24.2429 7.74836 24.0879 7.7869C23.933 7.8257 23.8035 7.93195 23.7353 8.07622H23.7348ZM15.993 30.933C10.5834 30.9372 5.59514 28.0132 2.9561 23.2912C0.316808 18.5688 0.439984 12.7881 3.27798 8.18273L4.8928 10.4431C4.9928 10.5832 5.15426 10.6663 5.32639 10.6666H6.7631C5.95399 12.0527 5.47275 13.6058 5.35686 15.2069C4.42224 14.7261 3.64724 13.9853 3.12485 13.0736L2.19465 13.5952C2.91053 14.8405 4.01833 15.8142 5.34514 16.3647C5.45894 19.7602 7.18497 22.8982 9.99197 24.8125C9.10943 25.388 8.07689 25.6901 7.02351 25.6807L7.01075 26.7474H7.07299C8.48469 26.7354 9.85421 26.2656 10.9758 25.4088C13.975 27.019 17.5656 27.088 20.6244 25.5945C20.6786 26.6487 20.4242 27.6958 19.8921 28.6078L20.8083 29.1539C21.5291 27.9104 21.8187 26.4638 21.6317 25.0388C24.514 23.2406 26.3665 20.1764 26.6194 16.7886C27.5579 17.2696 28.3361 18.0131 28.8595 18.9284L29.7897 18.4068C29.0743 17.1628 27.9681 16.1899 26.6428 15.6394C26.5902 13.8894 26.1022 12.1803 25.2228 10.6666H26.6595C26.8316 10.6663 26.9931 10.5832 27.0931 10.4431L28.7079 8.18273C31.5459 12.7881 31.6691 18.5688 29.0298 23.2912C26.3908 28.0132 21.4025 30.9372 15.993 30.933Z" fill="#DB4661"/>
</svg>
