<svg width="182" height="64" viewBox="0 0 182 64" fill="none" xmlns="http://www.w3.org/2000/svg">
<g filter="url(#filter0_d_3452_1187)">
<rect x="16" y="12" width="150" height="32" rx="16" fill="#FFDF00"/>
<path d="M46.9727 28.3472C46.9727 29.8325 46.596 31.0005 45.8428 31.8511C45.0938 32.7017 44.0506 33.127 42.7134 33.127C41.3465 33.127 40.2907 32.7101 39.5459 31.8765C38.8053 31.0386 38.4351 29.8579 38.4351 28.3345C38.4351 26.8237 38.8075 25.6536 39.5522 24.8242C40.297 23.9906 41.355 23.5737 42.7261 23.5737C44.0591 23.5737 45.1001 23.9969 45.8491 24.8433C46.5981 25.6896 46.9727 26.8576 46.9727 28.3472ZM39.5776 28.3472C39.5776 29.604 39.8442 30.5583 40.3774 31.21C40.9149 31.8574 41.6935 32.1812 42.7134 32.1812C43.7417 32.1812 44.5182 31.8574 45.043 31.21C45.5677 30.5625 45.8301 29.6082 45.8301 28.3472C45.8301 27.0988 45.5677 26.153 45.043 25.5098C44.5225 24.8623 43.7502 24.5386 42.7261 24.5386C41.6978 24.5386 40.9149 24.8644 40.3774 25.5161C39.8442 26.1636 39.5776 27.1073 39.5776 28.3472ZM54.0757 33H53.0093V26.9443H50.9209C50.8066 28.4508 50.6479 29.6463 50.4448 30.5308C50.2417 31.4152 49.9772 32.0627 49.6514 32.4731C49.3298 32.8836 48.9193 33.0889 48.4199 33.0889C48.1914 33.0889 48.0094 33.0635 47.874 33.0127V32.2319C47.9671 32.2573 48.0729 32.27 48.1914 32.27C48.6781 32.27 49.0653 31.7559 49.353 30.7275C49.6408 29.6992 49.8587 28.1377 50.0068 26.043H54.0757V33ZM57.3066 26.043V30.4546L57.2622 31.6099L57.2432 31.9717L61.0073 26.043H62.3213V33H61.3374V28.7471L61.3564 27.9092L61.3882 27.084L57.6304 33H56.3164V26.043H57.3066ZM68.1675 31.9844L68.3643 31.394L68.6372 30.645L70.5225 26.0557H71.8618V33H70.9287V27.2554L70.8018 27.6235L70.4336 28.5947L68.6372 33H67.7549L65.9585 28.582C65.7342 28.015 65.5798 27.5728 65.4951 27.2554V33H64.5557V26.0557H65.8442L67.666 30.4673C67.848 30.9328 68.0151 31.4385 68.1675 31.9844ZM75.1689 33H74.1152V26.043H79.9551V33H78.8887V26.957H75.1689V33ZM83.1797 26.043V30.4546L83.1353 31.6099L83.1162 31.9717L86.8804 26.043H88.1943V33H87.2104V28.7471L87.2295 27.9092L87.2612 27.084L83.5034 33H82.1895V26.043H83.1797ZM94.707 33L94.4976 32.0098H94.4468C94.0998 32.4456 93.7528 32.7419 93.4058 32.8984C93.063 33.0508 92.6335 33.127 92.1172 33.127C91.4274 33.127 90.8857 32.9492 90.4922 32.5938C90.1029 32.2383 89.9082 31.7326 89.9082 31.0767C89.9082 29.6717 91.0317 28.9354 93.2788 28.8677L94.4595 28.8296V28.3979C94.4595 27.8521 94.341 27.45 94.104 27.1919C93.8713 26.9295 93.4967 26.7983 92.9805 26.7983C92.4007 26.7983 91.7448 26.9761 91.0127 27.3315L90.689 26.5254C91.0317 26.3392 91.4062 26.1932 91.8125 26.0874C92.223 25.9816 92.6335 25.9287 93.0439 25.9287C93.8734 25.9287 94.487 26.1128 94.8848 26.481C95.2868 26.8491 95.4878 27.4395 95.4878 28.252V33H94.707ZM92.3267 32.2573C92.9826 32.2573 93.4967 32.0775 93.8691 31.7178C94.2458 31.3581 94.4341 30.8545 94.4341 30.207V29.5786L93.3804 29.623C92.5425 29.6527 91.9373 29.7839 91.5649 30.0166C91.1968 30.2451 91.0127 30.6027 91.0127 31.0894C91.0127 31.4702 91.127 31.7601 91.3555 31.959C91.5882 32.1579 91.9119 32.2573 92.3267 32.2573ZM103.708 35.4058H102.686V33H97.8237V35.4058H96.8081V32.0923H97.354C97.9211 31.3221 98.3654 30.4186 98.687 29.3818C99.0086 28.3451 99.1758 27.2321 99.1885 26.043H102.711V32.0923H103.708V35.4058ZM101.696 32.0923V26.8745H100.134C100.079 27.814 99.8973 28.7661 99.5884 29.731C99.2837 30.6916 98.9028 31.4787 98.4458 32.0923H101.696ZM109.383 33L109.173 32.0098H109.123C108.776 32.4456 108.429 32.7419 108.082 32.8984C107.739 33.0508 107.309 33.127 106.793 33.127C106.103 33.127 105.562 32.9492 105.168 32.5938C104.779 32.2383 104.584 31.7326 104.584 31.0767C104.584 29.6717 105.708 28.9354 107.955 28.8677L109.135 28.8296V28.3979C109.135 27.8521 109.017 27.45 108.78 27.1919C108.547 26.9295 108.173 26.7983 107.656 26.7983C107.076 26.7983 106.421 26.9761 105.688 27.3315L105.365 26.5254C105.708 26.3392 106.082 26.1932 106.488 26.0874C106.899 25.9816 107.309 25.9287 107.72 25.9287C108.549 25.9287 109.163 26.1128 109.561 26.481C109.963 26.8491 110.164 27.4395 110.164 28.252V33H109.383ZM107.002 32.2573C107.658 32.2573 108.173 32.0775 108.545 31.7178C108.922 31.3581 109.11 30.8545 109.11 30.207V29.5786L108.056 29.623C107.218 29.6527 106.613 29.7839 106.241 30.0166C105.873 30.2451 105.688 30.6027 105.688 31.0894C105.688 31.4702 105.803 31.7601 106.031 31.959C106.264 32.1579 106.588 32.2573 107.002 32.2573ZM121.335 33H115.235V32.0923L117.679 29.6357C118.424 28.8825 118.915 28.3451 119.152 28.0234C119.389 27.7018 119.567 27.3887 119.685 27.084C119.804 26.7793 119.863 26.4513 119.863 26.1001C119.863 25.605 119.713 25.2135 119.412 24.9258C119.112 24.6338 118.695 24.4878 118.162 24.4878C117.777 24.4878 117.41 24.5513 117.063 24.6782C116.721 24.8052 116.338 25.0358 115.915 25.3701L115.356 24.6528C116.211 23.9419 117.142 23.5864 118.149 23.5864C119.021 23.5864 119.704 23.8107 120.199 24.2593C120.694 24.7036 120.942 25.3024 120.942 26.0557C120.942 26.6439 120.777 27.2257 120.447 27.8013C120.117 28.3768 119.499 29.1047 118.593 29.9849L116.562 31.9717V32.0225H121.335V33ZM128.826 28.3472C128.826 29.951 128.572 31.1486 128.064 31.9399C127.56 32.7313 126.788 33.127 125.747 33.127C124.748 33.127 123.989 32.7228 123.468 31.9146C122.948 31.1021 122.688 29.9129 122.688 28.3472C122.688 26.7306 122.939 25.5309 123.443 24.748C123.946 23.9652 124.715 23.5737 125.747 23.5737C126.754 23.5737 127.518 23.9821 128.039 24.7988C128.563 25.6156 128.826 26.7983 128.826 28.3472ZM123.754 28.3472C123.754 29.6971 123.913 30.681 124.23 31.2988C124.547 31.9124 125.053 32.2192 125.747 32.2192C126.45 32.2192 126.957 31.9082 127.271 31.2861C127.588 30.6598 127.747 29.6802 127.747 28.3472C127.747 27.0142 127.588 26.0387 127.271 25.4209C126.957 24.7988 126.45 24.4878 125.747 24.4878C125.053 24.4878 124.547 24.7946 124.23 25.4082C123.913 26.0176 123.754 26.9972 123.754 28.3472ZM136.214 33H130.114V32.0923L132.558 29.6357C133.303 28.8825 133.794 28.3451 134.031 28.0234C134.268 27.7018 134.445 27.3887 134.564 27.084C134.682 26.7793 134.742 26.4513 134.742 26.1001C134.742 25.605 134.591 25.2135 134.291 24.9258C133.991 24.6338 133.574 24.4878 133.041 24.4878C132.655 24.4878 132.289 24.5513 131.942 24.6782C131.6 24.8052 131.217 25.0358 130.793 25.3701L130.235 24.6528C131.09 23.9419 132.021 23.5864 133.028 23.5864C133.9 23.5864 134.583 23.8107 135.078 24.2593C135.573 24.7036 135.821 25.3024 135.821 26.0557C135.821 26.6439 135.656 27.2257 135.326 27.8013C134.996 28.3768 134.378 29.1047 133.472 29.9849L131.441 31.9717V32.0225H136.214V33ZM143.705 28.3472C143.705 29.951 143.451 31.1486 142.943 31.9399C142.439 32.7313 141.667 33.127 140.626 33.127C139.627 33.127 138.868 32.7228 138.347 31.9146C137.827 31.1021 137.566 29.9129 137.566 28.3472C137.566 26.7306 137.818 25.5309 138.322 24.748C138.825 23.9652 139.593 23.5737 140.626 23.5737C141.633 23.5737 142.397 23.9821 142.917 24.7988C143.442 25.6156 143.705 26.7983 143.705 28.3472ZM138.633 28.3472C138.633 29.6971 138.792 30.681 139.109 31.2988C139.426 31.9124 139.932 32.2192 140.626 32.2192C141.328 32.2192 141.836 31.9082 142.149 31.2861C142.467 30.6598 142.625 29.6802 142.625 28.3472C142.625 27.0142 142.467 26.0387 142.149 25.4209C141.836 24.7988 141.328 24.4878 140.626 24.4878C139.932 24.4878 139.426 24.7946 139.109 25.4082C138.792 26.0176 138.633 26.9972 138.633 28.3472Z" fill="black"/>
</g>
<defs>
<filter id="filter0_d_3452_1187" x="0" y="0" width="182" height="64" filterUnits="userSpaceOnUse" color-interpolation-filters="sRGB">
<feFlood flood-opacity="0" result="BackgroundImageFix"/>
<feColorMatrix in="SourceAlpha" type="matrix" values="0 0 0 0 0 0 0 0 0 0 0 0 0 0 0 0 0 0 127 0" result="hardAlpha"/>
<feOffset dy="4"/>
<feGaussianBlur stdDeviation="8"/>
<feColorMatrix type="matrix" values="0 0 0 0 0 0 0 0 0 0 0 0 0 0 0 0 0 0 0.08 0"/>
<feBlend mode="normal" in2="BackgroundImageFix" result="effect1_dropShadow_3452_1187"/>
<feBlend mode="normal" in="SourceGraphic" in2="effect1_dropShadow_3452_1187" result="shape"/>
</filter>
</defs>
</svg>
